<svg width="24" height="24" viewBox="0 0 24 24" fill="none" xmlns="http://www.w3.org/2000/svg">
<path fill-rule="evenodd" clip-rule="evenodd" d="M11.9012 6.75C12.4535 6.75 12.9012 7.19772 12.9012 7.75V7.83327C13.5904 8.0297 14.1984 8.42925 14.5972 8.99566C14.9152 9.44721 14.8069 10.0711 14.3554 10.389C13.9038 10.707 13.28 10.5988 12.962 10.1472C12.8092 9.9302 12.4352 9.69463 11.9012 9.69463C11.0405 9.69463 10.749 10.2147 10.749 10.4086C10.749 10.5446 10.7704 10.6115 10.7817 10.6375C10.7893 10.6548 10.7974 10.6684 10.8262 10.6894C10.9127 10.7523 11.1925 10.8778 11.9012 10.8778C12.7488 10.8778 13.5909 11.0026 14.2377 11.4579C14.9612 11.9673 15.249 12.7446 15.249 13.5917C15.249 14.5444 14.8133 15.288 14.1054 15.7469C13.7405 15.9835 13.3266 16.1306 12.9012 16.2141V16.25C12.9012 16.8023 12.4535 17.25 11.9012 17.25C11.3489 17.25 10.9012 16.8023 10.9012 16.25V16.1846C10.2988 16.0347 9.75171 15.7487 9.33216 15.3434C8.93494 14.9597 8.92399 14.3266 9.3077 13.9294C9.69141 13.5322 10.3245 13.5212 10.7217 13.905C10.9356 14.1116 11.3527 14.3057 11.9012 14.3057C12.4484 14.3057 12.8174 14.1984 13.0174 14.0688C13.1592 13.9768 13.249 13.8634 13.249 13.5917C13.249 13.2147 13.1455 13.1349 13.0864 13.0934C12.9507 12.9978 12.6188 12.8778 11.9012 12.8778C11.0446 12.8778 10.2483 12.742 9.65007 12.307C8.98112 11.8206 8.74902 11.1077 8.74902 10.4086C8.74902 9.08338 9.74387 8.17449 10.9012 7.83859V7.75C10.9012 7.19771 11.3489 6.75 11.9012 6.75Z" fill="black"/>
<path fill-rule="evenodd" clip-rule="evenodd" d="M3.2035 11.0242C3.2035 10.4844 2.76596 10.0469 2.22622 10.0469C1.68648 10.0469 1.24894 10.4844 1.24894 11.0242C1.24894 11.1077 1.24976 11.191 1.2514 11.2742C1.26204 11.8138 1.70812 12.2427 2.24775 12.232C2.78739 12.2214 3.21622 11.7753 3.20559 11.2357C3.2042 11.1653 3.2035 11.0948 3.2035 11.0242ZM3.55441 13.7332C3.41629 13.2115 2.88135 12.9005 2.35958 13.0386C1.83782 13.1767 1.52681 13.7117 1.66494 14.2334C1.70768 14.3949 1.75356 14.555 1.8025 14.7137C1.96154 15.2295 2.50859 15.5187 3.02436 15.3597C3.54013 15.2006 3.82932 14.6536 3.67028 14.1378C3.62907 14.0042 3.59043 13.8693 3.55441 13.7332ZM4.69859 16.433C4.41892 15.9714 3.81798 15.8239 3.35635 16.1036C2.89472 16.3832 2.74721 16.9842 3.02688 17.4458C3.11363 17.589 3.20319 17.7301 3.29548 17.869C3.59422 18.3185 4.20081 18.4407 4.65033 18.142C5.09985 17.8432 5.22209 17.2367 4.92335 16.7871C4.84618 16.671 4.77123 16.553 4.69859 16.433ZM6.56254 18.6743C6.15799 18.317 5.54039 18.3553 5.18311 18.7599C4.82582 19.1644 4.86414 19.782 5.26869 20.1393C5.39492 20.2508 5.52356 20.3593 5.65449 20.4647C6.0749 20.8032 6.69011 20.7368 7.0286 20.3164C7.36709 19.896 7.30068 19.2808 6.88027 18.9423C6.7726 18.8556 6.66666 18.7663 6.56254 18.6743ZM9.00443 20.2037C8.50498 19.9991 7.93423 20.2381 7.72961 20.7376C7.52499 21.237 7.764 21.8078 8.26345 22.0124C8.42051 22.0767 8.57936 22.1372 8.7399 22.1936C9.24908 22.3727 9.80699 22.1051 9.98603 21.5959C10.165 21.0867 9.89744 20.5288 9.38826 20.3497C9.25911 20.3043 9.13114 20.2556 9.00443 20.2037ZM11.7937 20.7943C11.2541 20.7802 10.8053 21.2062 10.7913 21.7458C10.7772 22.2853 11.2032 22.7341 11.7427 22.7482C11.8279 22.7504 11.9134 22.7515 11.999 22.7515C12.0439 22.7515 12.088 22.7485 12.1313 22.7426C16.8233 22.5598 21.0785 19.4651 22.3687 14.7956C23.9612 9.03181 20.4138 3.14835 14.525 1.61816C9.00299 0.183264 3.30801 3.06182 1.31537 8.18008C1.202 8.47126 1.23472 8.7991 1.40338 9.06215C1.57205 9.32519 1.85634 9.49172 2.16827 9.5102L4.68916 9.65955C5.22796 9.69147 5.69061 9.28057 5.72253 8.74178C5.75445 8.20298 5.34355 7.74033 4.80476 7.70841L3.74045 7.64536C5.73375 4.26136 9.91843 2.44061 14.0335 3.5099C18.9195 4.77953 21.7722 9.61549 20.4847 14.275C19.4179 18.1359 15.83 20.7306 11.8432 20.7954C11.8267 20.7951 11.8102 20.7947 11.7937 20.7943Z" fill="black"/>
</svg>
