<svg width="28" height="28" viewBox="0 0 28 28" fill="none" xmlns="http://www.w3.org/2000/svg">
<path d="M23.9166 16.3334V11.6667C23.9166 7.26693 23.9166 5.06705 22.5498 3.70021C21.183 2.33337 18.9831 2.33337 14.5833 2.33337H13.4167C9.01701 2.33337 6.81714 2.33337 5.45031 3.70019C4.08347 5.06701 4.08346 7.26688 4.08342 11.6666L4.08337 16.3333C4.08334 20.7331 4.08332 22.933 5.45016 24.2998C6.81699 25.6667 9.01689 25.6667 13.4167 25.6667H14.5833C18.9831 25.6667 21.183 25.6667 22.5498 24.2998C23.9166 22.9331 23.9166 20.7331 23.9166 16.3334Z" stroke="#475569" stroke-width="2" stroke-linecap="round" stroke-linejoin="round"/>
<path d="M9.33337 8.16663H18.6667M9.33337 14H18.6667M9.33337 19.8333H14" stroke="#475569" stroke-width="2" stroke-linecap="round" stroke-linejoin="round"/>
</svg>
