<svg width="25" height="24" viewBox="0 0 25 24" fill="none" xmlns="http://www.w3.org/2000/svg">
<path fill-rule="evenodd" clip-rule="evenodd" d="M17.3223 1.40314C16.183 1.24997 14.7274 1.24998 12.8897 1.25H11.7769C9.93912 1.24998 8.4835 1.24997 7.3443 1.40313C6.17188 1.56076 5.22294 1.89287 4.47458 2.64123C3.72622 3.38958 3.3941 4.33852 3.23646 5.51094C3.08329 6.65014 3.08329 8.10576 3.08329 9.94351L3.08325 14.0563C3.08322 15.894 3.0832 17.3498 3.23635 18.489C3.39397 19.6614 3.72608 20.6104 4.47445 21.3587C5.22281 22.1071 6.17176 22.4392 7.34419 22.5969C8.48341 22.75 9.93904 22.75 11.7768 22.75H12.8896C14.7273 22.75 16.183 22.75 17.3223 22.5969C18.4947 22.4392 19.4436 22.1071 20.192 21.3588C20.9404 20.6104 21.2725 19.6614 21.4301 18.489C21.5833 17.3498 21.5832 15.8942 21.5832 14.0565V9.94359C21.5832 8.10585 21.5833 6.65018 21.4301 5.51098C21.2725 4.33856 20.9404 3.38961 20.192 2.64124C19.4436 1.89288 18.4947 1.56076 17.3223 1.40314ZM8.33325 6C7.78097 6 7.33325 6.44772 7.33325 7C7.33325 7.55229 7.78097 8 8.33325 8H16.3333C16.8856 8 17.3333 7.55229 17.3333 7C17.3333 6.44772 16.8856 6 16.3333 6H8.33325ZM8.33325 11C7.78097 11 7.33325 11.4477 7.33325 12C7.33325 12.5523 7.78097 13 8.33325 13H16.3333C16.8856 13 17.3333 12.5523 17.3333 12C17.3333 11.4477 16.8856 11 16.3333 11H8.33325ZM8.33325 16C7.78097 16 7.33325 16.4477 7.33325 17C7.33325 17.5523 7.78097 18 8.33325 18H12.3333C12.8856 18 13.3333 17.5523 13.3333 17C13.3333 16.4477 12.8856 16 12.3333 16H8.33325Z" fill="#14B8A6"/>
</svg>
