<svg width="24" height="25" viewBox="0 0 24 25" fill="none" xmlns="http://www.w3.org/2000/svg">
<path d="M8.5 11.5L9.5 12.5M9.5 12.5L10.5 13.5M9.5 12.5L10.5 11.5M9.5 12.5L8.5 13.5" stroke="#2B5BEE" stroke-width="1.5" stroke-linecap="round"/>
<path d="M3.5 11.5L4.5 12.5M4.5 12.5L5.5 13.5M4.5 12.5L5.5 11.5M4.5 12.5L3.5 13.5" stroke="#2B5BEE" stroke-width="1.5" stroke-linecap="round"/>
<path d="M13.5 11.5L14.5 12.5M14.5 12.5L15.5 13.5M14.5 12.5L15.5 11.5M14.5 12.5L13.5 13.5" stroke="#2B5BEE" stroke-width="1.5" stroke-linecap="round"/>
<path d="M18.5 11.5L19.5 12.5M19.5 12.5L20.5 13.5M19.5 12.5L20.5 11.5M19.5 12.5L18.5 13.5" stroke="#2B5BEE" stroke-width="1.5" stroke-linecap="round"/>
<path d="M19.6337 16.5C17.9509 19.3033 15.1068 21.1217 13.4059 22.0194C12.7988 22.3398 12.4953 22.5 11.9999 22.5C11.5045 22.5 11.201 22.3398 10.5939 22.0194C8.89298 21.1217 6.04894 19.3033 4.36613 16.5M20.9998 8.5C20.9985 7.04505 20.9762 6.2889 20.5958 5.78529C20.1917 5.25029 19.278 4.99056 17.4506 4.4711C16.2021 4.1162 15.1015 3.68863 14.2222 3.29829C13.0233 2.7661 12.4239 2.5 11.9999 2.5C11.5759 2.5 10.9765 2.7661 9.77763 3.29829C8.89831 3.68863 7.79776 4.11619 6.54925 4.4711C4.72185 4.99056 3.80814 5.25029 3.40403 5.78529C3.02363 6.2889 3.00131 7.04505 3 8.5" stroke="#2B5BEE" stroke-width="1.5" stroke-linecap="round"/>
</svg>
