<svg width="25" height="24" viewBox="0 0 25 24" fill="none" xmlns="http://www.w3.org/2000/svg">
<path d="M2.5 8.56907C2.5 7.37289 2.98238 6.63982 3.98063 6.08428L8.08987 3.79744C10.2431 2.59915 11.3197 2 12.5 2C13.6803 2 14.7569 2.59915 16.9101 3.79744L21.0194 6.08428C22.0176 6.63982 22.5 7.3729 22.5 8.56907C22.5 8.89343 22.5 9.05561 22.4646 9.18894C22.2785 9.88945 21.6437 10 21.0307 10H3.96928C3.35627 10 2.72152 9.88944 2.53542 9.18894C2.5 9.05561 2.5 8.89343 2.5 8.56907Z" stroke="#FBBF24" stroke-width="1.5"/>
<path d="M12.4961 7H12.5051" stroke="#FBBF24" stroke-width="1.5" stroke-linecap="round" stroke-linejoin="round"/>
<path d="M4.5 10V18.5M8.5 10V18.5" stroke="#FBBF24" stroke-width="1.5"/>
<path d="M16.5 10V18.5M20.5 10V18.5" stroke="#FBBF24" stroke-width="1.5"/>
<path d="M19.5 18.5H5.5C3.84315 18.5 2.5 19.8431 2.5 21.5C2.5 21.7761 2.72386 22 3 22H22C22.2761 22 22.5 21.7761 22.5 21.5C22.5 19.8431 21.1569 18.5 19.5 18.5Z" stroke="#FBBF24" stroke-width="1.5"/>
</svg>
