
<svg width="24" height="24" viewBox="0 0 24 24" fill="none" xmlns="http://www.w3.org/2000/svg">
<path d="M19.7453 13C20.5362 11.8662 21 10.4872 21 9C21 5.13401 17.866 2 14 2C10.134 2 7 5.134 7 9C7 10.0736 7.24169 11.0907 7.67363 12" stroke="black" stroke-width="1.5" stroke-linecap="round" stroke-linejoin="round"/>
<path d="M3 14H5.39482C5.68897 14 5.97908 14.0663 6.24217 14.1936L8.28415 15.1816C8.54724 15.3089 8.83735 15.3751 9.1315 15.3751H10.1741C11.1825 15.3751 12 16.1662 12 17.142C12 17.1814 11.973 17.2161 11.9338 17.2269L9.39287 17.9295C8.93707 18.0555 8.449 18.0116 8.025 17.8064L5.84211 16.7503M12 16.5L16.5928 15.0889C17.407 14.8352 18.2871 15.136 18.7971 15.8423C19.1659 16.3529 19.0157 17.0842 18.4785 17.3942L10.9629 21.7305C10.4849 22.0063 9.92094 22.0736 9.39516 21.9176L3 20.0199" stroke="black" stroke-width="1.5" stroke-linecap="round" stroke-linejoin="round"/>
<path d="M13.5239 9.47607C13.2167 9.37135 12.9375 9.26662 12.6861 9.16189C12.4348 9.05018 12.2183 8.91753 12.0368 8.76393C11.8553 8.61033 11.7121 8.4288 11.6074 8.21934C11.5097 8.00291 11.4608 7.74109 11.4608 7.43389C11.4608 6.95913 11.6074 6.56116 11.9007 6.24C12.1939 5.91185 12.6128 5.68844 13.1574 5.56974V4.72145C13.2202 4.70749 13.318 4.69004 13.4506 4.66909C13.5833 4.64814 13.7194 4.63767 13.8591 4.63767C14.1313 4.63767 14.3443 4.68655 14.4979 4.78429C14.6515 4.87505 14.7283 5.07404 14.7283 5.38124V5.51738C15.1612 5.57324 15.5068 5.68495 15.7651 5.85251C16.0304 6.02007 16.1631 6.25047 16.1631 6.54371C16.1631 6.72524 16.1212 6.88233 16.0374 7.01498C15.9536 7.14065 15.8524 7.24887 15.7337 7.33964C15.5801 7.24189 15.3741 7.15811 15.1158 7.08829C14.8575 7.01149 14.5747 6.97309 14.2675 6.97309C13.9533 6.97309 13.7229 7.01847 13.5763 7.10924C13.4297 7.19302 13.3564 7.30124 13.3564 7.43389C13.3564 7.53862 13.4017 7.62589 13.4925 7.69571C13.5833 7.75855 13.7194 7.81789 13.9009 7.87375L14.456 8.05178C15.1123 8.26124 15.615 8.53004 15.9641 8.85818C16.3201 9.17935 16.4982 9.6192 16.4982 10.1777C16.4982 10.6525 16.3481 11.0575 16.0479 11.3926C15.7476 11.7207 15.3078 11.9441 14.7283 12.0628V12.9007C14.6655 12.9146 14.5677 12.9321 14.4351 12.953C14.3024 12.974 14.1663 12.9844 14.0266 12.9844C13.7543 12.9844 13.5414 12.9356 13.3878 12.8378C13.2342 12.7471 13.1574 12.5481 13.1574 12.2409V12.1361C12.906 12.1082 12.6756 12.0628 12.4662 12C12.2637 11.9372 12.0857 11.8569 11.9321 11.7591C11.7855 11.6614 11.6703 11.5462 11.5865 11.4135C11.5027 11.2809 11.4608 11.1308 11.4608 10.9632C11.4608 10.7607 11.5201 10.5897 11.6388 10.45C11.7575 10.3034 11.8867 10.1917 12.0263 10.1149C12.2218 10.2685 12.4592 10.4012 12.7385 10.5129C13.0247 10.6246 13.3354 10.6804 13.6705 10.6804C14.0127 10.6804 14.2535 10.6281 14.3932 10.5233C14.5328 10.4186 14.6026 10.2964 14.6026 10.1568C14.6026 10.0172 14.5468 9.91244 14.4351 9.84262C14.3233 9.76582 14.1663 9.69251 13.9638 9.62269L13.5239 9.47607Z" fill="black"/>
</svg>
