<svg xmlns="http://www.w3.org/2000/svg" width="40" height="40" viewBox="0 0 40 40" fill="none">
<g opacity="0.5">
<path d="M25 15L15 24.9993M25 25L15 15.0007" stroke="#475569" stroke-width="1.5" stroke-linecap="round" stroke-linejoin="round"/>
<path d="M4.16675 20.0001C4.16675 12.5362 4.16675 8.80423 6.48548 6.48548C8.80423 4.16675 12.5362 4.16675 20.0001 4.16675C27.4639 4.16675 31.1959 4.16675 33.5148 6.48548C35.8334 8.80423 35.8334 12.5362 35.8334 20.0001C35.8334 27.4639 35.8334 31.1959 33.5148 33.5148C31.1959 35.8334 27.4639 35.8334 20.0001 35.8334C12.5362 35.8334 8.80423 35.8334 6.48548 33.5148C4.16675 31.1959 4.16675 27.4639 4.16675 20.0001Z" stroke="#475569" stroke-width="1.5"/>
</g>
</svg>