<svg width="20" height="20" viewBox="0 0 20 20" fill="none" xmlns="http://www.w3.org/2000/svg">
<g clip-path="url(#clip0_2278_6883)">
<path d="M7.5 12.5C7.5 10.143 7.5 8.9645 8.23223 8.23223C8.9645 7.5 10.143 7.5 12.5 7.5H13.3333C15.6903 7.5 16.8688 7.5 17.6011 8.23223C18.3333 8.9645 18.3333 10.143 18.3333 12.5V13.3333C18.3333 15.6903 18.3333 16.8688 17.6011 17.6011C16.8688 18.3333 15.6903 18.3333 13.3333 18.3333H12.5C10.143 18.3333 8.9645 18.3333 8.23223 17.6011C7.5 16.8688 7.5 15.6903 7.5 13.3333V12.5Z" stroke="#2B5BEE" stroke-width="1.5" stroke-linecap="round" stroke-linejoin="round"/>
<path d="M14.1664 7.50002C14.1644 5.03578 14.1272 3.75936 13.4098 2.88538C13.2713 2.7166 13.1166 2.56184 12.9478 2.42332C12.0258 1.66669 10.6561 1.66669 7.9165 1.66669C5.17694 1.66669 3.80715 1.66669 2.8852 2.42332C2.71641 2.56183 2.56165 2.7166 2.42314 2.88538C1.6665 3.80734 1.6665 5.17712 1.6665 7.91669C1.6665 10.6563 1.6665 12.026 2.42314 12.948C2.56165 13.1168 2.71641 13.2715 2.8852 13.41C3.75918 14.1274 5.0356 14.1646 7.49984 14.1666" stroke="#2B5BEE" stroke-width="1.5" stroke-linecap="round" stroke-linejoin="round"/>
</g>
<defs>
<clipPath id="clip0_2278_6883">
<rect width="20" height="20" fill="white"/>
</clipPath>
</defs>
</svg>
