<svg width="25" height="24" viewBox="0 0 25 24" fill="none" xmlns="http://www.w3.org/2000/svg">
<path d="M4.76007 10.1469C4.48502 12.2525 4.32113 14.3711 4.26907 16.4939C7.14788 17.6964 9.90425 19.1732 12.5001 20.9039C15.0962 19.1732 17.8529 17.6964 20.7321 16.4939C20.68 14.3711 20.5161 12.2525 20.2411 10.1469M20.2411 10.1469C21.1161 9.85292 22.0031 9.58092 22.8991 9.33292C19.6356 7.04517 16.152 5.08881 12.5001 3.49292C8.84807 5.08914 5.36447 7.04584 2.10107 9.33392C2.99435 9.58055 3.88068 9.85165 4.75907 10.1469C7.4277 11.0441 10.017 12.162 12.5001 13.4889C14.9828 12.162 17.5728 11.0441 20.2411 10.1469ZM7.25007 14.9999C7.44899 14.9999 7.63975 14.9209 7.7804 14.7802C7.92106 14.6396 8.00007 14.4488 8.00007 14.2499C8.00007 14.051 7.92106 13.8602 7.7804 13.7196C7.63975 13.5789 7.44899 13.4999 7.25007 13.4999C7.05116 13.4999 6.8604 13.5789 6.71974 13.7196C6.57909 13.8602 6.50007 14.051 6.50007 14.2499C6.50007 14.4488 6.57909 14.6396 6.71974 14.7802C6.8604 14.9209 7.05116 14.9999 7.25007 14.9999ZM7.25007 14.9999V11.3249C8.94681 10.2703 10.6994 9.30818 12.5001 8.44292M5.49307 19.9929C6.05105 19.4363 6.49351 18.7749 6.79504 18.0468C7.09656 17.3186 7.25121 16.538 7.25007 15.7499V14.2499" stroke="#A855F7" stroke-width="1.5" stroke-linecap="round" stroke-linejoin="round"/>
</svg>
