<svg width="24" height="25" viewBox="0 0 24 25" fill="none" xmlns="http://www.w3.org/2000/svg">
<path d="M2.5 8.68677C2.60406 6.58705 2.91537 5.27792 3.84664 4.34664C4.77792 3.41537 6.08705 3.10406 8.18677 3M21.5 8.68677C21.3959 6.58705 21.0846 5.27792 20.1534 4.34664C19.2221 3.41537 17.9129 3.10406 15.8132 3M15.8132 22C17.9129 21.8959 19.2221 21.5846 20.1534 20.6534C21.0846 19.7221 21.3959 18.4129 21.5 16.3132M8.18676 22C6.08705 21.8959 4.77792 21.5846 3.84664 20.6534C2.91537 19.7221 2.60406 18.4129 2.5 16.3132" stroke="#2B5BEE" stroke-width="1.5" stroke-linecap="round" stroke-linejoin="round"/>
<path d="M16.5 16V11.5C16.5 9.01472 14.4853 7 12 7C9.51472 7 7.5 9.01472 7.5 11.5V16" stroke="#2B5BEE" stroke-width="1.5" stroke-linecap="round" stroke-linejoin="round"/>
<path d="M13.5 13V11.5C13.5 10.6716 12.8284 10 12 10C11.1716 10 10.5 10.6716 10.5 11.5V17M13.5 16V18" stroke="#2B5BEE" stroke-width="1.5" stroke-linecap="round" stroke-linejoin="round"/>
</svg>
