<svg width="40" height="40" viewBox="0 0 40 40" fill="none" xmlns="http://www.w3.org/2000/svg">
    <path
        d="M4.16675 13.6447C4.34018 10.1452 4.85903 7.96328 6.41115 6.41115C7.96328 4.85903 10.1452 4.34018 13.6447 4.16675M35.8334 13.6447C35.6599 10.1452 35.1411 7.96328 33.5891 6.41115C32.0369 4.85903 29.8549 4.34018 26.3554 4.16675M26.3554 35.8334C29.8549 35.6599 32.0369 35.1411 33.5891 33.5891C35.1411 32.0369 35.6599 29.8549 35.8334 26.3554M13.6447 35.8334C10.1452 35.6599 7.96328 35.1411 6.41115 33.5891C4.85903 32.0369 4.34018 29.8549 4.16675 26.3554"
        stroke="#2B5BEE" stroke-width="2" stroke-linecap="round" stroke-linejoin="round" />
    <path
        d="M27.5 25.8333V18.3333C27.5 14.1911 24.1422 10.8333 20 10.8333C15.8579 10.8333 12.5 14.1911 12.5 18.3333V25.8333"
        stroke="#2B5BEE" stroke-width="2" stroke-linecap="round" stroke-linejoin="round" />
    <path
        d="M22.5 20.8333V18.3333C22.5 16.9526 21.3807 15.8333 20 15.8333C18.6193 15.8333 17.5 16.9526 17.5 18.3333V27.4999M22.5 25.8333V29.1666"
        stroke="#2B5BEE" stroke-width="2" stroke-linecap="round" stroke-linejoin="round" />
</svg>