<svg width="20" height="20" viewBox="0 0 20 20" fill="none" xmlns="http://www.w3.org/2000/svg">
<path d="M11.2498 12.5H4.99984C3.42849 12.5 2.64281 12.5 2.15466 12.0118C1.6665 11.5237 1.6665 10.738 1.6665 9.16667V5.83333C1.6665 4.26198 1.6665 3.47631 2.15466 2.98816C2.64281 2.5 3.42849 2.5 4.99984 2.5H14.9998C16.5712 2.5 17.3568 2.5 17.845 2.98816C18.3332 3.47631 18.3332 4.26198 18.3332 5.83333V10C18.3332 10.7766 18.3332 11.1648 18.2063 11.4712C18.0372 11.8795 17.7127 12.204 17.3043 12.3732C16.998 12.5 16.6098 12.5 15.8332 12.5" stroke="white" stroke-width="1.5" stroke-linecap="round" stroke-linejoin="round"/>
<path d="M11.6668 7.49992C11.6668 8.42034 10.9207 9.16659 10.0002 9.16659C9.07966 9.16659 8.3335 8.42034 8.3335 7.49992C8.3335 6.57944 9.07966 5.83325 10.0002 5.83325C10.9207 5.83325 11.6668 6.57944 11.6668 7.49992Z" stroke="white" stroke-width="1.5" stroke-linecap="round" stroke-linejoin="round"/>
<path d="M10.8333 14.1667C10.8333 12.7859 11.9526 11.6667 13.3333 11.6667V10C13.3333 8.61925 14.4526 7.5 15.8333 7.5V12.0833C15.8333 14.0288 15.8333 15.0016 15.4398 15.738C15.129 16.3194 14.6527 16.7957 14.0713 17.1064C13.3349 17.5 12.3622 17.5 10.4167 17.5H10C8.44683 17.5 7.67029 17.5 7.05772 17.2462C6.24096 16.9079 5.59205 16.259 5.25373 15.4423C5 14.8297 5 14.0532 5 12.5" stroke="white" stroke-width="1.5" stroke-linecap="round" stroke-linejoin="round"/>
</svg>
