<svg width="24" height="25" viewBox="0 0 24 25" fill="none" xmlns="http://www.w3.org/2000/svg">
<path d="M4.26781 19.3447C4.49269 21.015 5.87613 22.3235 7.55966 22.4009C8.97627 22.466 10.4153 22.5 12 22.5C13.5847 22.5 15.0237 22.466 16.4403 22.4009C18.1239 22.3235 19.5073 21.015 19.7322 19.3447C19.879 18.2547 20 17.1376 20 16C20 14.8624 19.879 13.7453 19.7322 12.6553C19.5073 10.985 18.1239 9.67649 16.4403 9.59909C15.0237 9.53397 13.5847 9.5 12 9.5C10.4153 9.5 8.97627 9.53397 7.55966 9.59909C5.87613 9.67649 4.49269 10.985 4.26781 12.6553C4.12105 13.7453 4 14.8624 4 16C4 17.1376 4.12105 18.2547 4.26781 19.3447Z" stroke="#2B5BEE" stroke-width="1.5"/>
<path d="M7.5 9.5V7C7.5 4.51472 9.51472 2.5 12 2.5C14.4853 2.5 16.5 4.51472 16.5 7V9.5" stroke="#2B5BEE" stroke-width="1.5" stroke-linecap="round" stroke-linejoin="round"/>
<path d="M16 15.99V16" stroke="#2B5BEE" stroke-width="2" stroke-linecap="round" stroke-linejoin="round"/>
<path d="M12 15.99V16" stroke="#2B5BEE" stroke-width="2" stroke-linecap="round" stroke-linejoin="round"/>
<path d="M8 15.99V16" stroke="#2B5BEE" stroke-width="2" stroke-linecap="round" stroke-linejoin="round"/>
</svg>
