<svg width="25" height="24" viewBox="0 0 25 24" fill="none" xmlns="http://www.w3.org/2000/svg">
<path d="M5.5 9C5.5 5.70017 5.5 4.05025 6.52513 3.02513C7.55025 2 9.20017 2 12.5 2C15.7998 2 17.4497 2 18.4749 3.02513C19.5 4.05025 19.5 5.70017 19.5 9V15C19.5 18.2998 19.5 19.9497 18.4749 20.9749C17.4497 22 15.7998 22 12.5 22C9.20017 22 7.55025 22 6.52513 20.9749C5.5 19.9497 5.5 18.2998 5.5 15V9Z" stroke="#2B5BEE" stroke-width="1.5" stroke-linecap="round"/>
<path d="M11.5 19H13.5" stroke="#2B5BEE" stroke-width="1.5" stroke-linecap="round" stroke-linejoin="round"/>
<path d="M9.5 2L9.589 2.53402C9.78188 3.69129 9.87832 4.26993 10.2752 4.62204C10.6892 4.98934 11.2761 5 12.5 5C13.7239 5 14.3108 4.98934 14.7248 4.62204C15.1217 4.26993 15.2181 3.69129 15.411 2.53402L15.5 2" stroke="#2B5BEE" stroke-width="1.5" stroke-linejoin="round"/>
</svg>
