<svg width="20" height="20" viewBox="0 0 20 20" fill="none" xmlns="http://www.w3.org/2000/svg">
<path d="M10.0016 7.50594C9.08113 7.50594 8.33496 8.06558 8.33496 8.75596C8.33496 9.44629 9.08113 10.006 10.0016 10.006C10.922 10.006 11.6683 10.5656 11.6683 11.256C11.6683 11.9463 10.922 12.506 10.0016 12.506M10.0016 7.50594C10.7273 7.50594 11.3446 7.85377 11.5734 8.33929M10.0016 7.50594V6.67261M10.0016 12.506C9.27588 12.506 8.65854 12.1581 8.42979 11.6726M10.0016 12.506V13.3393" stroke="white" stroke-width="1.5" stroke-linecap="round"/>
<path d="M10.8335 2.08936C10.8335 2.08936 10.5701 2.08936 10.0002 2.08936C6.26821 2.08936 4.40224 2.08936 3.24286 3.24873C2.0835 4.4081 2.0835 6.27407 2.0835 10.006C2.0835 13.738 2.0835 15.604 3.24286 16.7634C4.40224 17.9227 6.26821 17.9227 10.0002 17.9227C13.7321 17.9227 15.5981 17.9227 16.7575 16.7634C17.9168 15.604 17.9168 13.738 17.9168 10.006C17.9168 9.43612 17.9168 9.17271 17.9168 9.17271" stroke="white" stroke-width="1.5" stroke-linecap="round"/>
<path d="M17.9069 2.07739L14.4271 5.55923M13.7402 2.51219L13.8387 5.08843C13.8387 5.69563 14.2013 6.07396 14.8617 6.12168L17.4651 6.24406" stroke="white" stroke-width="1.5" stroke-linecap="round" stroke-linejoin="round"/>
</svg>
