<svg width="25" height="24" viewBox="0 0 25 24" fill="none" xmlns="http://www.w3.org/2000/svg">
<path d="M20 16V12.0059C20 10.5195 20 9.77627 19.7444 9.09603C19.4888 8.4158 18.9994 7.85648 18.0206 6.73784L16.5 5H8.5L6.97939 6.73784C6.00058 7.85648 5.51118 8.4158 5.25559 9.09603C5 9.77627 5 10.5195 5 12.0059V16C5 18.8284 5 20.2426 5.87868 21.1213C6.75736 22 8.17157 22 11 22H14C16.8284 22 18.2426 22 19.1213 21.1213C20 20.2426 20 18.8284 20 16Z" stroke="#10B981" stroke-width="1.5" stroke-linecap="round" stroke-linejoin="round"/>
<path d="M10 15.6831C10 16.9125 11.8539 17.9204 13.6325 17.3553C15.4112 16.7901 15.1497 15.1248 14.5463 14.4708C13.9429 13.8169 13.055 13.9265 12.0399 13.8751C9.75873 13.7594 9.59769 11.5722 11.4447 10.7069C12.7997 10.072 14.5379 10.8862 14.7381 12M12.471 9.5V10.4777M12.471 17.7204V18.5" stroke="#10B981" stroke-width="1.5" stroke-linecap="round" stroke-linejoin="round"/>
<path d="M8 2H17C17.4659 2 17.6989 2 17.8827 2.07612C18.1277 2.17761 18.3224 2.37229 18.4239 2.61732C18.5 2.80109 18.5 3.03406 18.5 3.5C18.5 3.96594 18.5 4.19891 18.4239 4.38268C18.3224 4.62771 18.1277 4.82239 17.8827 4.92388C17.6989 5 17.4659 5 17 5H8C7.53406 5 7.30109 5 7.11732 4.92388C6.87229 4.82239 6.67761 4.62771 6.57612 4.38268C6.5 4.19891 6.5 3.96594 6.5 3.5C6.5 3.03406 6.5 2.80109 6.57612 2.61732C6.67761 2.37229 6.87229 2.17761 7.11732 2.07612C7.30109 2 7.53406 2 8 2Z" stroke="#10B981" stroke-width="1.5" stroke-linecap="round" stroke-linejoin="round"/>
</svg>
