<svg width="24" height="24" viewBox="0 0 24 24" fill="none" xmlns="http://www.w3.org/2000/svg">
<path fill-rule="evenodd" clip-rule="evenodd" d="M13.0059 14.5C13.0059 15.0523 12.5581 15.5 12.0059 15.5C11.4536 15.5 11.0059 15.0523 11.0059 14.5V8L10.4116 8.00002C10.236 8.00015 10.0203 8.0003 9.84387 7.97823L9.84053 7.97781C9.71408 7.96204 9.13804 7.89021 8.86368 7.32461C8.58872 6.75779 8.89065 6.25765 8.95597 6.14944L8.95841 6.14541C9.05062 5.99239 9.18477 5.82151 9.29511 5.68096L9.31885 5.65071C9.61348 5.27489 9.99545 4.79067 10.3759 4.39966C10.5657 4.20455 10.783 4.00332 11.0139 3.84447C11.2191 3.70327 11.5693 3.5 12 3.5C12.4307 3.5 12.7809 3.70327 12.9861 3.84447C13.217 4.00332 13.4343 4.20455 13.6241 4.39966C14.0046 4.79067 14.3865 5.27489 14.6812 5.65071L14.7049 5.68095C14.8152 5.82151 14.9494 5.99239 15.0416 6.14541L15.044 6.14945C15.1093 6.25765 15.4113 6.75779 15.1363 7.32461C14.862 7.89021 14.2859 7.96205 14.1595 7.97781L14.1561 7.97823C13.9797 8.0003 13.764 8.00015 13.5884 8.00002L13.0059 8V14.5Z" fill="#2B5BEE"/>
<path fill-rule="evenodd" clip-rule="evenodd" d="M4 15.5C4.55228 15.5 5 15.9477 5 16.5C5 17.0989 5.03256 17.5106 5.09643 17.8013C5.15781 18.0807 5.23372 18.181 5.27636 18.2236C5.31899 18.2663 5.41933 18.3422 5.69872 18.4036C5.98944 18.4674 6.40114 18.5 7 18.5H17C17.5989 18.5 18.0106 18.4674 18.3013 18.4036C18.5807 18.3422 18.681 18.2663 18.7236 18.2236C18.7663 18.181 18.8422 18.0807 18.9036 17.8013C18.9674 17.5106 19 17.0989 19 16.5C19 15.9477 19.4477 15.5 20 15.5C20.5523 15.5 21 15.9477 21 16.5C21 17.1421 20.9678 17.7259 20.857 18.2304C20.7437 18.7462 20.535 19.2407 20.1379 19.6379C19.7407 20.035 19.2462 20.2437 18.7304 20.357C18.2259 20.4678 17.6421 20.5 17 20.5H7C6.35786 20.5 5.77406 20.4678 5.26959 20.357C4.7538 20.2437 4.25926 20.035 3.86214 19.6379C3.46503 19.2407 3.25632 18.7462 3.14301 18.2304C3.03219 17.7259 3 17.1421 3 16.5C3 15.9477 3.44772 15.5 4 15.5Z" fill="#2B5BEE"/>
</svg>
