<svg xmlns="http://www.w3.org/2000/svg" width="28" height="28" viewBox="0 0 28 28" fill="none">
  <path fill-rule="evenodd" clip-rule="evenodd"
    d="M14.0764 0.333313C16.9974 0.3333 19.2916 0.333287 21.0828 0.5741C22.9183 0.820887 24.3747 1.33694 25.519 2.48119C26.6632 3.62546 27.1792 5.08181 27.426 6.91734C27.6668 8.70857 27.6668 11.0028 27.6668 13.9237V14.0762C27.6668 16.9972 27.6668 19.2914 27.426 21.0826C27.1792 22.9181 26.6632 24.3745 25.519 25.5188C24.3747 26.663 22.9183 27.179 21.0828 27.4258C19.2916 27.6666 16.9974 27.6666 14.0764 27.6666H13.9239C11.003 27.6666 8.70875 27.6666 6.91752 27.4258C5.08199 27.179 3.62564 26.663 2.48138 25.5188C1.33712 24.3745 0.82107 22.9181 0.574283 21.0826C0.33347 19.2914 0.333483 16.9972 0.333496 14.0762V13.9237C0.333483 11.0028 0.33347 8.70857 0.574283 6.91734C0.82107 5.08181 1.33712 3.62546 2.48138 2.48119C3.62564 1.33694 5.08199 0.820887 6.91752 0.5741C8.70875 0.333287 11.003 0.3333 13.9239 0.333313H14.0764ZM20.2344 9.01711C20.7772 9.5147 20.8139 10.3581 20.3164 10.901L12.9831 18.9009C12.7372 19.169 12.3927 19.325 12.0291 19.333C11.6655 19.3409 11.3145 19.2 11.0573 18.9428L7.72402 15.6094C7.20332 15.0888 7.20332 14.2445 7.72402 13.7238C8.24472 13.2032 9.08894 13.2032 9.60964 13.7238L11.9583 16.0725L18.3506 9.09902C18.8482 8.55619 19.6916 8.51953 20.2344 9.01711Z"
    fill="#35C75A" />
</svg>