<svg width="20" height="21" viewBox="0 0 20 21" fill="none" xmlns="http://www.w3.org/2000/svg">
<path d="M13.3335 12.1667C13.3335 12.8571 13.8932 13.4167 14.5835 13.4167C15.2738 13.4167 15.8335 12.8571 15.8335 12.1667C15.8335 11.4764 15.2738 10.9167 14.5835 10.9167C13.8932 10.9167 13.3335 11.4764 13.3335 12.1667Z" stroke="#F9FAFB" stroke-width="1.5"/>
<path d="M8.33317 6.33333H13.3332C15.6902 6.33333 16.8687 6.33333 17.6009 7.06557C18.3332 7.7978 18.3332 8.97633 18.3332 11.3333V13C18.3332 15.357 18.3332 16.5355 17.6009 17.2677C16.8687 18 15.6902 18 13.3332 18H8.33317C5.19047 18 3.61913 18 2.64281 17.0237C1.6665 16.0474 1.6665 14.476 1.6665 11.3333V9.66667C1.6665 6.52397 1.6665 4.95262 2.64281 3.97631C3.61913 3 5.19047 3 8.33317 3H11.6665C12.4415 3 12.829 3 13.1469 3.08518C14.0096 3.31635 14.6835 3.99022 14.9147 4.85295C14.9998 5.17087 14.9998 5.55836 14.9998 6.33333" stroke="#F9FAFB" stroke-width="1.5" stroke-linecap="round"/>
</svg>
