<svg width="20" height="20" viewBox="0 0 20 20" fill="none" xmlns="http://www.w3.org/2000/svg">
<path d="M13.335 11.25C13.335 11.9403 13.8945 12.5 14.585 12.5C15.2753 12.5 15.835 11.9403 15.835 11.25C15.835 10.5597 15.2753 10 14.585 10C13.8945 10 13.335 10.5597 13.335 11.25Z" stroke="white" stroke-width="1.5"/>
<path d="M1.66846 9.16667C1.66846 6.02397 1.66846 4.45262 2.64477 3.47631C3.62108 2.5 5.19243 2.5 8.33517 2.5H11.6685C12.4434 2.5 12.8309 2.5 13.1488 2.58518C14.0116 2.81635 14.6854 3.49022 14.9166 4.35295C15.0018 4.67087 15.0018 5.05836 15.0018 5.83333M8.33517 5.83333H13.3352C15.6922 5.83333 16.8707 5.83333 17.6029 6.56557C18.3352 7.2978 18.3352 8.47633 18.3352 10.8333V12.5C18.3352 14.857 18.3352 16.0355 17.6029 16.7677C16.8707 17.5 15.6922 17.5 13.3352 17.5H10.4172" stroke="white" stroke-width="1.5" stroke-linecap="round"/>
<path d="M8.33317 14.1666H4.99984M4.99984 14.1666H1.6665M4.99984 14.1666V17.4999M4.99984 14.1666V10.8333" stroke="white" stroke-width="1.5" stroke-linecap="round"/>
</svg>
